<mxfile host="app.diagrams.net" modified="2023-12-08T10:21:54.067Z" agent="Mozilla/5.0 (X11; Linux x86_64; rv:109.0) Gecko/20100101 Firefox/115.0" etag="TcBCKNd-nykVH1ZRd3tb" version="22.1.7" type="device">
  <diagram name="Página-1" id="iTrCphNycl18ooxI1gFG">
    <mxGraphModel dx="1165" dy="531" grid="1" gridSize="10" guides="1" tooltips="1" connect="1" arrows="1" fold="1" page="1" pageScale="1" pageWidth="1169" pageHeight="827" background="#c8e5f3" math="0" shadow="0">
      <root>
        <mxCell id="0" />
        <mxCell id="1" parent="0" />
        <mxCell id="xAe_nM0e8AgJnEzeRdf3-5" style="edgeStyle=orthogonalEdgeStyle;rounded=0;orthogonalLoop=1;jettySize=auto;html=1;exitX=0;exitY=0.5;exitDx=0;exitDy=0;entryX=1;entryY=0.5;entryDx=0;entryDy=0;" edge="1" parent="1" source="-msw1OAnyLwroeLDJRSv-1" target="-msw1OAnyLwroeLDJRSv-2">
          <mxGeometry relative="1" as="geometry" />
        </mxCell>
        <mxCell id="-msw1OAnyLwroeLDJRSv-1" value="Gestión Videoclub" style="ellipse;whiteSpace=wrap;html=1;aspect=fixed;" parent="1" vertex="1">
          <mxGeometry x="360" y="160" width="120" height="120" as="geometry" />
        </mxCell>
        <mxCell id="-msw1OAnyLwroeLDJRSv-4" style="edgeStyle=orthogonalEdgeStyle;rounded=0;orthogonalLoop=1;jettySize=auto;html=1;exitX=0.75;exitY=0;exitDx=0;exitDy=0;entryX=0;entryY=0;entryDx=0;entryDy=0;" parent="1" source="-msw1OAnyLwroeLDJRSv-2" target="-msw1OAnyLwroeLDJRSv-1" edge="1">
          <mxGeometry relative="1" as="geometry" />
        </mxCell>
        <mxCell id="-msw1OAnyLwroeLDJRSv-2" value="Clientes" style="rounded=1;whiteSpace=wrap;html=1;" parent="1" vertex="1">
          <mxGeometry x="80" y="200" width="110" height="40" as="geometry" />
        </mxCell>
        <mxCell id="-msw1OAnyLwroeLDJRSv-5" style="edgeStyle=orthogonalEdgeStyle;rounded=0;orthogonalLoop=1;jettySize=auto;html=1;exitX=0;exitY=0.5;exitDx=0;exitDy=0;entryX=1;entryY=0.5;entryDx=0;entryDy=0;startArrow=classic;startFill=1;endArrow=none;endFill=0;" parent="1" source="-msw1OAnyLwroeLDJRSv-3" target="-msw1OAnyLwroeLDJRSv-1" edge="1">
          <mxGeometry relative="1" as="geometry" />
        </mxCell>
        <mxCell id="-msw1OAnyLwroeLDJRSv-3" value="Proveedor" style="rounded=1;whiteSpace=wrap;html=1;" parent="1" vertex="1">
          <mxGeometry x="600" y="190" width="120" height="60" as="geometry" />
        </mxCell>
        <mxCell id="-msw1OAnyLwroeLDJRSv-6" value="&lt;font style=&quot;font-size: 25px;&quot;&gt;&lt;b&gt;&lt;i&gt;Diagrama de contexto&lt;/i&gt;&lt;/b&gt;&lt;/font&gt;" style="rounded=1;whiteSpace=wrap;html=1;" parent="1" vertex="1">
          <mxGeometry x="280" y="60" width="280" height="40" as="geometry" />
        </mxCell>
        <mxCell id="-msw1OAnyLwroeLDJRSv-7" value="0" style="text;html=1;strokeColor=none;fillColor=none;align=center;verticalAlign=middle;whiteSpace=wrap;rounded=0;" parent="1" vertex="1">
          <mxGeometry x="410" y="170" width="20" height="10" as="geometry" />
        </mxCell>
        <mxCell id="xAe_nM0e8AgJnEzeRdf3-2" style="edgeStyle=orthogonalEdgeStyle;rounded=0;orthogonalLoop=1;jettySize=auto;html=1;exitX=0.75;exitY=1;exitDx=0;exitDy=0;" edge="1" parent="1" source="-msw1OAnyLwroeLDJRSv-2" target="-msw1OAnyLwroeLDJRSv-1">
          <mxGeometry relative="1" as="geometry">
            <mxPoint x="130" y="250" as="sourcePoint" />
            <mxPoint x="347.53999999999996" y="272.24" as="targetPoint" />
            <Array as="points">
              <mxPoint x="163" y="260" />
            </Array>
          </mxGeometry>
        </mxCell>
        <mxCell id="xAe_nM0e8AgJnEzeRdf3-3" value="&lt;font style=&quot;font-size: 10px;&quot;&gt;Alquiler&lt;/font&gt;" style="text;html=1;strokeColor=none;fillColor=none;align=center;verticalAlign=middle;whiteSpace=wrap;rounded=0;" vertex="1" parent="1">
          <mxGeometry x="240" y="150" width="60" height="30" as="geometry" />
        </mxCell>
        <mxCell id="xAe_nM0e8AgJnEzeRdf3-4" value="&lt;font style=&quot;font-size: 10px;&quot;&gt;Devolucion&lt;/font&gt;" style="text;html=1;strokeColor=none;fillColor=none;align=center;verticalAlign=middle;whiteSpace=wrap;rounded=0;" vertex="1" parent="1">
          <mxGeometry x="240" y="260" width="60" height="30" as="geometry" />
        </mxCell>
        <mxCell id="xAe_nM0e8AgJnEzeRdf3-6" value="&lt;font style=&quot;font-size: 10px;&quot;&gt;Sanción&lt;/font&gt;" style="text;html=1;strokeColor=none;fillColor=none;align=center;verticalAlign=middle;whiteSpace=wrap;rounded=0;" vertex="1" parent="1">
          <mxGeometry x="250" y="220" width="60" height="20" as="geometry" />
        </mxCell>
        <mxCell id="xAe_nM0e8AgJnEzeRdf3-9" value="&lt;font style=&quot;font-size: 10px;&quot;&gt;Pedido películas&lt;/font&gt;" style="text;html=1;strokeColor=none;fillColor=none;align=center;verticalAlign=middle;whiteSpace=wrap;rounded=0;" vertex="1" parent="1">
          <mxGeometry x="510" y="190" width="60" height="30" as="geometry" />
        </mxCell>
      </root>
    </mxGraphModel>
  </diagram>
</mxfile>
